<svg xmlns="http://www.w3.org/2000/svg"
    xmlns:xlink="http://www.w3.org/1999/xlink" version="1.1" id="Layer_1" x="0px" y="0px" viewBox="0 0 1346.5 496" style="enable-background:new 0 0 1346.5 496;" xml:space="preserve">
    <style type="text/css">
	.st0{fill:#FFDC00;}
	.st1{fill:#E9008C;}
	.st2{fill:#231F20;}
    </style>
    <g>
        <path class="st0" d="M741.7,122.5h-61.4L664,104l0,0l0,0V19.3L741.7,122.5"/>
        <path class="st0" d="M664,19.2L664,19.2L664,19.2V104l-16.3,18.5h-61.4L664,19.2"/>
    </g>
    <g>
        <path class="st1" d="M586.4,379.2h61.4l16.3,18.5l0,0l0,0v84.7L586.4,379.2"/>
        <path class="st1" d="M664,482.4L664,482.4L664,482.4v-84.8l16.3-18.5h61.4L664,482.4"/>
    </g>
    <g>
        <g>
            <polyline points="11.9,276.5 34.2,276.5 34.2,179.3 11.9,179.3 11.9,154.3 94.9,154.3 94.9,179.3 72.5,179.3 72.5,276.5     94.9,276.5 94.9,301.4 11.9,301.4 11.9,276.5   "/>
            <path d="M107.4,199h48.9v9.5c10.6-7.8,19.1-11.1,29.5-11.1c13.7,0,31.2,7.4,31.2,34.9v45.5h15v23.6h-48.1v-65    c0-8.2-3.5-11.5-9.5-11.5c-5.6,0-11.9,2.4-18,6.7v46.1H170v23.6h-62.6v-23.6h15.8v-55.2h-15.8V199"/>
            <polyline points="242.8,277.8 258.6,277.8 258.6,178 242.8,178 242.8,154.3 291.8,154.3 291.8,277.8 306.5,277.8 306.5,301.4     242.8,301.4 242.8,277.8   "/>
            <polyline points="352.2,305.6 315.1,222.6 300.2,222.6 300.2,199 359.6,199 359.6,222.6 349.6,222.6 366.7,268.5 384.9,222.6     373.8,222.6 373.8,199 425.8,199 425.8,222.6 410.9,222.6 360.4,347.3 335.1,347.3 352.2,305.6   "/>
            <path d="M436.7,199h13v-27.1l33.1-0.3V199h18.4v23.6h-18.4V267c0,8.9,1.5,10.6,8.5,10.6c3.5,0,5.4-0.4,10-2v22.1    c-8.2,3.5-16.5,5.2-24.5,5.2c-13,0-27.1-6.3-27.1-24.5v-55.9h-13V199"/>
            <path d="M628.4,301.4h-52.2v-8c-9.5,6.7-17.8,9.5-27.7,9.5c-21.4,0-37.5-13.6-37.5-32.1c0-19.9,17.5-34.5,42-34.5    c9.3,0,14.9,1.7,23.2,4.5v-5.6c0-10.6-7.8-18-19.5-18c-7.6,0-12.8,2.4-18.6,8l-26.4-4.5c8.2-16.7,23.8-24.3,49.6-24.3    c33.6,0,48.1,11.9,48.1,39.2v42h19V301.4 M557.4,256.2c-8.7,0-15,5.4-15,12.8c0,7.8,5.9,13.7,13.4,13.7c6.5,0,11.7-2.8,20.4-10.6    v-8.4C568.2,258.3,562.4,256.2,557.4,256.2z"/>
        </g>
        <g>
            <g>
                <path class="st2" d="M706.7,202.9l1,1v97.6l-1,1h-12.8l-1-1v-97.6l1-1H706.7z"/>
                <path class="st2" d="M753,202.9l1.9,1l55.5,75v-75l1-1h12.8l1,1v97.6l-1,1h-14.5l-1.9-1l-55.3-75v75l-1,1h-12.8l-1-1v-97.6l1-1     H753z"/>
                <path class="st2" d="M903.6,227c-5.9-7.3-11.7-11.5-20.5-11.5c-7.8,0-13.6,5.5-13.6,13c0,15.3,45.9,13.4,45.9,45.4     c0,17.4-13.6,31.4-34.3,31.4c-15.3,0-28.5-7.7-36.2-23.7l10.7-8h1.9c6.7,12.4,14.2,16.3,23.5,16.3c11.1,0,17.4-7.3,17.4-15.9     c0-18.6-45.9-15.9-45.9-45.4c0-16.3,13-28.5,30.4-28.5c14.7,0,25.1,7.8,32.3,18.9l-9.9,8L903.6,227L903.6,227z"/>
                <path class="st2" d="M953.1,202.9l1,1v97.6l-1,1h-12.8l-1-1v-97.6l1-1H953.1z"/>
                <path class="st2" d="M1015.1,202.9c31.4,0,54.5,18.2,54.5,49.8s-23.2,49.8-54.5,49.8h-30l-1-1v-97.6l1-1H1015.1z M998.9,287.7     h16.3c22,0,37.5-11.9,37.5-35s-15.5-35-37.5-35h-16.3L998.9,287.7L998.9,287.7z"/>
                <path class="st2" d="M1152.1,202.9l1,1v12.8l-1,1h-44v26.6h32.5l1,1v13l-1,1h-32.5v28.5h49.8l1,1v12.8l-1,1h-63.5l-1-1V204l1-1     L1152.1,202.9L1152.1,202.9z"/>
                <path class="st2" d="M1209.4,202.9c22,0,37.9,12.4,37.9,31.4c0,13-7.8,23.2-20.9,27.7l30,39.4l-1,1h-17.2l-1-1l-28.7-35.6h-12.2     v35.6l-1,1h-12.8l-1-1v-97.6l1-1h26.9V202.9z M1196.3,250.9h13c13.2,0,21.1-5.9,21.1-16.6c0-10.5-7.8-16.6-21.1-16.6h-13V250.9z"/>
                <path class="st2" d="M1323,227c-5.9-7.3-11.7-11.5-20.5-11.5c-7.8,0-13.6,5.5-13.6,13c0,15.3,45.9,13.4,45.9,45.4     c0,17.4-13.6,31.4-34.3,31.4c-15.3,0-28.5-7.7-36.2-23.7l10.7-8h1.9c6.7,12.4,14.2,16.3,23.5,16.3c11.1,0,17.4-7.3,17.4-15.9     c0-18.6-45.9-15.9-45.9-45.4c0-16.3,13-28.5,30.4-28.5c14.7,0,25.1,7.8,32.3,18.9l-9.9,8L1323,227L1323,227z"/>
            </g>
        </g>
    </g>
    <g>
        <path d="M664,291.1c0,8-6.2,14.2-14.2,14.2s-14.2-6.2-14.2-14.2s6.2-14.2,14.2-14.2C657.9,276.9,664,283.1,664,291.1z M637.9,291.1   c0,6.8,5.1,12.2,12,12.2s12-5.4,12-12.2c0-6.8-5.1-12.2-12-12.2S637.9,284.3,637.9,291.1z M646.7,299.3h-2v-16.4h6.3   c3.7,0,5.3,1.6,5.3,4.5s-1.9,4.2-4.1,4.6l4.9,7.3h-2.4l-4.6-7.3h-3.4V299.3z M649.4,290.3c2.5,0,4.9-0.1,4.9-2.9   c0-2.3-1.9-2.8-3.9-2.8h-3.7v5.7L649.4,290.3L649.4,290.3z"/>
    </g>
</svg>