<svg xmlns="http://www.w3.org/2000/svg" width="85" height="63" viewBox="0 0 85 63">
    <g fill="none" fill-rule="evenodd">
        <g>
            <g>
                <g>
                    <g fill="#D11C76">
                        <path d="M48.284 30.12v26.024c0 .793-.079.717.7.717 10.227.002 20.453.001 30.68.001 1.442 0 1.904-.459 1.904-1.895V5.247c0-1.367-.484-1.854-1.842-1.854-10.261 0-20.523.004-30.784-.012-.53-.001-.673.12-.671.662.018 8.692.013 17.385.013 26.077M45 30.152c0-8.711-.005-17.423.012-26.134 0-.515-.135-.637-.642-.637-13.103.015-26.205.012-39.308.012-1.296 0-1.8.5-1.8 1.788v49.89c0 1.284.512 1.79 1.802 1.79 13.103.001 26.205-.002 39.308.013.511 0 .64-.13.64-.64C44.995 47.54 45 38.846 45 30.152m-2.614 29.942c-12.468 0-24.935-.004-37.403.006-2.039.001-3.57-.816-4.523-2.637C.067 56.711 0 55.883 0 55.048V13.73l.001-8.57C.003 2.397 1.472.655 4.178.166 4.598.091 5.013.06 5.436.06 30.195.06 54.953.054 79.712.074c2.036.002 3.694.826 4.648 2.748.345.696.445 1.446.445 2.208.003 16.717.005 33.435 0 50.152 0 2.436-1.294 4.158-3.546 4.775-.498.136-1.011.136-1.523.137h-37.35" transform="translate(-58 -1788) translate(58 1077) translate(0 712) translate(0 .766)"/>
                    </g>
                    <path fill="#FEFEFE" d="M61.546 24.382c-2.537 0-5.075.01-7.612-.009-.397-.003-.518.103-.503.501.031.792.021 1.586.004 2.379-.007.3.089.392.39.392 5.145-.008 10.29-.008 15.436 0 .3 0 .4-.092.394-.391-.016-.793-.025-1.587.003-2.379.014-.391-.097-.505-.5-.502-2.537.019-5.074.01-7.612.01m.02 7.186c-2.537 0-5.075.007-7.613-.007-.366-.002-.543.05-.523.48.036.792.025 1.586.003 2.379-.009.332.109.414.426.413 5.128-.008 10.257-.009 15.385.001.336 0 .418-.116.411-.428-.017-.775-.03-1.552.004-2.326.02-.425-.122-.524-.532-.521-2.52.019-5.04.01-7.56.01m2.38-14.416c-3.332 0-6.665.005-9.998-.008-.375-.001-.537.07-.518.489.034.756.024 1.516.003 2.274-.01.347.065.495.459.495 6.683-.012 13.366-.012 20.05 0 .37 0 .439-.14.431-.464-.018-.758-.032-1.518.005-2.274.021-.436-.137-.522-.539-.52-3.297.014-6.595.008-9.892.008" transform="translate(-58 -1788) translate(58 1077) translate(0 712)"/>
                    <path fill="#A9AE05" d="M63.948 17.154c3.297 0 6.595.006 9.892-.009.402-.001.56.085.539.52-.038.757-.023 1.517-.005 2.275.008.325-.062.464-.432.463-6.683-.01-13.366-.01-20.05 0-.393.001-.467-.147-.458-.494.02-.758.031-1.518-.003-2.274-.02-.42.143-.49.518-.489 3.333.013 6.666.008 9.999.008M61.567 31.57c2.52 0 5.04.009 7.56-.01.41-.003.551.096.532.521-.034.774-.021 1.551-.004 2.326.007.312-.075.429-.41.428-5.13-.01-10.258-.01-15.386 0-.317 0-.435-.082-.426-.414.022-.792.033-1.587-.003-2.379-.02-.43.157-.482.523-.48 2.538.014 5.076.007 7.614.007M61.546 24.382c2.538 0 5.075.01 7.613-.01.402-.002.513.112.499.503-.028.792-.02 1.586-.003 2.379.006.299-.094.391-.394.391-5.146-.008-10.291-.008-15.437 0-.3 0-.396-.093-.39-.392.018-.793.028-1.587-.003-2.379-.015-.398.106-.504.503-.5 2.537.017 5.075.008 7.612.008M23.314 47.779v-4.275c-2.455-.042-4.995-.804-6.476-1.862l1.016-2.836c1.523 1.016 3.724 1.82 6.094 1.82 3.005 0 5.037-1.735 5.037-4.148 0-2.327-1.65-3.766-4.783-5.036-4.317-1.693-6.983-3.64-6.983-7.322 0-3.513 2.497-6.18 6.39-6.814v-4.275h2.625v4.106c2.54.084 4.274.762 5.502 1.481l-1.058 2.793c-.889-.508-2.624-1.439-5.333-1.439-3.259 0-4.486 1.947-4.486 3.64 0 2.201 1.566 3.301 5.248 4.825 4.36 1.778 6.56 3.978 6.56 7.745 0 3.344-2.328 6.476-6.687 7.195v4.402h-2.666z" transform="translate(-58 -1788) translate(58 1077) translate(0 712)"/>
                </g>
            </g>
        </g>
    </g>
</svg>