<svg id="icons-sprite-pfizer-outdo-yesterday" viewBox="0 0 165 60" fill="none"
	xmlns="http://www.w3.org/2000/svg" aria-label="Pfizer Outdo Yesterday logo">
	<title>Pfizer Outdo Yesterday logo</title>
	<g clip-path="url(#clip0_797_12634)">
		<path d="M0.365234 31.3897C0.426934 31.2113 0.499853 31.0328 0.583989 30.8629C2.73508 26.4355 11.9817 24.6198 25.2444 26.2316L27.9143 16.326C14.2842 14.5783 4.33087 16.5441 2.67057 22.8098L0.365234 31.3897Z" fill="#0095FF"></path>
		<path d="M50.1177 21.0818C50.0504 21.2744 49.9718 21.4614 49.8821 21.6455C47.6974 26.0445 38.4676 27.8403 25.2441 26.2314L22.5742 36.137C36.2043 37.8847 46.1577 35.9189 47.818 29.6532L50.1177 21.0818Z" fill="#0000C9"></path>
		<path d="M9.08594 10.6409C29.2086 12.0969 49.7631 22.1497 47.8168 29.6533L49.6201 22.9513C50.1978 20.8382 50.4867 19.7449 50.4867 18.8724C50.4867 11.2244 30.6529 1.89955 11.7559 0.735352L9.08594 10.6409Z" fill="#0095FF"></path>
		<path d="M41.3979 41.8192C21.2753 40.3633 0.720769 30.3104 2.66993 22.8069L0.866605 29.5088C0.288868 31.6219 0 32.7153 0 33.5877C0 41.2357 19.8338 50.5606 38.7308 51.7248L41.4007 41.8192H41.3979Z" fill="#0000C9"></path>
		<path d="M114.797 39.4879C112.251 39.5219 110.896 37.8847 110.896 34.9784C110.896 34.7858 110.902 34.5989 110.91 34.4119H120.917C121.116 33.6443 121.248 32.8087 121.248 32.041C121.248 28.5003 119.099 25.7952 114.699 25.7952C110.299 25.7952 106.201 30.2707 106.201 34.9784C106.201 39.6862 109.112 42.227 113.973 42.227C116.121 42.227 118.238 41.4934 119.728 40.3575L118.802 38.0206C117.644 38.9214 116.222 39.4567 114.8 39.4907L114.797 39.4879ZM114.763 28.3332C116.253 28.3332 117.013 29.3019 117.013 31.4405C117.013 31.6416 117.001 31.8541 116.976 32.075H111.269C111.889 29.8288 113.215 28.3332 114.763 28.3332Z" fill="#0000C9"></path>
		<path d="M75.1796 24.7925C75.1796 21.1186 72.3358 18.4475 68.0364 18.4475H59.7041L53.4219 41.8277H58.6804L60.997 33.211H65.56C70.7848 33.211 75.1824 29.8034 75.1824 24.7953L75.1796 24.7925ZM63.5407 30.469H61.7318L64.2278 21.1838H66.1209C68.5132 21.1838 69.8565 22.821 69.8565 24.9908C69.8565 28.4635 67.1586 30.469 63.5407 30.469Z" fill="#0000C9"></path>
		<path d="M82.0304 26.2286L82.6194 24.0589C82.9167 22.923 83.4131 20.9855 84.1086 18.7478C84.835 16.442 86.1587 15.0059 87.9452 15.0059C88.8062 15.0059 89.3335 15.4053 89.3335 16.0738C89.2998 16.8074 88.7053 17.2436 88.7053 18.4107C88.7053 19.7788 89.8636 20.8495 91.35 20.8495C93.201 20.8495 94.6902 19.3454 94.6902 17.5099C94.6902 14.6717 92.2755 12.7993 88.6043 12.7993C83.214 12.7993 79.6746 16.2721 77.459 24.3874L68.4648 57.4183H73.5579L81.3293 28.7949H86.6271L83.1467 41.8192H88.2397L92.4073 26.223H82.0304V26.2286Z" fill="#0000C9"></path>
		<path d="M107.819 26.2285H94.3263L93.6644 28.8005H100.196L90.0605 41.8276H104.347L105.009 39.2556H97.6553L107.819 26.2285Z" fill="#0000C9"></path>
		<path d="M134.537 25.9623C132.711 25.9623 130.768 27.152 129.248 29.6277L130.14 26.2286H125.046L120.879 41.8248H125.972L127.857 34.8113C128.617 31.9391 130.468 29.1348 131.693 29.1348C133.017 29.1348 132.521 31.6388 134.801 31.6388C136.455 31.6388 137.445 30.1036 137.445 28.6986C137.445 27.0613 136.155 25.9595 134.534 25.9595L134.537 25.9623Z" fill="#0000C9"></path>
		<path d="M87.4995 49.5012C89.7207 49.5012 91.1202 51.0138 91.1202 53.0448C91.1202 55.4327 89.3056 57.5684 86.8741 57.5684C84.6417 57.5684 83.2422 56.0587 83.2422 54.0249C83.2422 51.637 85.0567 49.5012 87.4995 49.5012ZM87.5444 50.5691C86.1814 50.5691 85.0567 52.1469 85.0567 54.2146C85.0567 55.6706 85.7719 56.5034 86.8404 56.5034C88.1838 56.5034 89.3056 54.9256 89.3056 52.8578C89.3056 51.4019 88.5905 50.5691 87.5444 50.5691Z" fill="#0000C9"></path>
		<path d="M95.9477 57.4239H94.2874L94.4977 56.6251C94.0911 57.1803 93.4965 57.5684 92.8571 57.5684C91.9428 57.5684 91.1183 56.8801 91.5137 55.3901L92.3495 52.2346H94.0434L93.1516 55.5799C92.9973 56.1804 93.2273 56.5232 93.648 56.5232C94.1864 56.5232 94.6492 55.9453 94.8595 55.1352L95.6308 52.2346H97.3247L95.9505 57.4239H95.9477Z" fill="#0000C9"></path>
		<path d="M99.2471 57.5458C98.1898 57.5458 97.5756 57.0133 97.8925 55.8009L98.6077 53.0901H97.7383L97.957 52.2347H98.8377L99.1462 51.045L100.885 50.8552L100.523 52.2347H101.712L101.494 53.0901H100.293L99.5108 56.0134C99.4126 56.3788 99.5444 56.6252 99.9286 56.6252C100.105 56.6252 100.302 56.5799 100.467 56.5034L100.633 57.2031C100.26 57.4155 99.7519 57.5486 99.2471 57.5486V57.5458Z" fill="#0000C9"></path>
		<path d="M101.359 55.4015C101.359 53.8889 102.417 52.0788 104.186 52.0788C104.913 52.0788 105.462 52.4131 105.715 53.0221L106.595 49.6428H108.289L106.253 57.4211H104.582L104.758 56.7215C104.329 57.322 103.768 57.5656 103.185 57.5656C102.086 57.5656 101.359 56.6761 101.359 55.3986V55.4015ZM105.308 54.09C105.308 53.3224 104.924 52.9683 104.506 52.9683C103.625 52.9683 103.031 54.3789 103.031 55.5346C103.031 56.2909 103.393 56.679 103.844 56.679C104.725 56.679 105.308 55.257 105.308 54.09Z" fill="#0000C9"></path>
		<path d="M110.698 52.0789C112.283 52.0789 113.197 53.0901 113.197 54.4894C113.197 56.0785 111.977 57.5458 110.171 57.5684C108.586 57.5684 107.672 56.5572 107.672 55.1579C107.672 53.5688 108.892 52.1015 110.698 52.0789ZM110.709 52.9796C109.862 52.9796 109.324 54.3138 109.324 55.5035C109.324 56.1805 109.576 56.6705 110.16 56.6705C111.006 56.6705 111.545 55.3363 111.545 54.1466C111.545 53.447 111.259 52.9796 110.709 52.9796Z" fill="#0000C9"></path>
		<path d="M117.364 54.7019L115.836 49.6458H117.805L118.873 53.4782L121.933 49.6458H123.276L119.061 54.8351L118.38 57.424H116.641L117.367 54.7019H117.364Z" fill="#0000C9"></path>
		<path d="M121.027 55.1691C121.027 53.5687 122.216 52.0901 123.944 52.0901C125.397 52.0901 126.199 52.9909 126.199 54.2683C126.199 54.4808 126.154 54.8122 126.112 55.0247H122.69C122.679 56.1577 123.187 56.6477 123.989 56.6477C124.474 56.6477 124.934 56.4579 125.299 56.1803L125.705 56.9366C125.209 57.3134 124.474 57.5711 123.669 57.5711C122.073 57.5711 121.027 56.693 121.027 55.1719V55.1691ZM122.766 54.1919H124.724V54.0701C124.724 53.3364 124.471 52.971 123.952 52.971C123.38 52.971 122.94 53.4809 122.763 54.1947L122.766 54.1919Z" fill="#0000C9"></path>
		<path d="M129.158 52.1015C130.103 52.1015 130.919 52.4782 131.379 52.9682L130.686 53.7359C130.333 53.3251 129.752 52.9796 129.18 52.9796C128.706 52.9796 128.398 53.2033 128.398 53.5348C128.398 54.325 130.863 54.1126 130.863 55.7017C130.863 56.7356 129.96 57.557 128.507 57.557C127.54 57.557 126.67 57.2115 126.219 56.6903L126.878 55.9C127.231 56.3447 127.803 56.7101 128.451 56.7101C129.099 56.7101 129.343 56.4325 129.343 56.1209C129.343 55.3419 126.911 55.5544 126.911 53.9313C126.911 52.9541 127.725 52.0986 129.155 52.0986L129.158 52.1015Z" fill="#0000C9"></path>
		<path d="M133.273 57.5458C132.215 57.5458 131.601 57.0133 131.918 55.8009L132.633 53.0901H131.764L131.982 52.2347H132.863L133.172 51.045L134.91 50.8552L134.549 52.2347H135.738L135.519 53.0901H134.319L133.536 56.0134C133.438 56.3788 133.57 56.6252 133.954 56.6252C134.131 56.6252 134.327 56.5799 134.492 56.5034L134.658 57.2031C134.285 57.4155 133.777 57.5486 133.273 57.5486V57.5458Z" fill="#0000C9"></path>
		<path d="M135.418 55.1691C135.418 53.5687 136.607 52.0901 138.335 52.0901C139.787 52.0901 140.59 52.9909 140.59 54.2683C140.59 54.4808 140.545 54.8122 140.503 55.0247H137.081C137.07 56.1577 137.577 56.6477 138.38 56.6477C138.865 56.6477 139.325 56.4579 139.689 56.1803L140.096 56.9366C139.6 57.3134 138.865 57.5711 138.06 57.5711C136.464 57.5711 135.418 56.693 135.418 55.1719V55.1691ZM137.157 54.1919H139.114V54.0701C139.114 53.3364 138.862 52.971 138.343 52.971C137.771 52.971 137.331 53.4809 137.154 54.1947L137.157 54.1919Z" fill="#0000C9"></path>
		<path d="M146.154 52.9797C146.154 53.4471 145.781 53.9343 145.263 53.9343C144.615 53.9343 144.603 53.2885 144.205 53.2885C143.832 53.2885 143.28 53.9541 143.027 54.9229L142.379 57.424H140.686L142.071 52.2347H143.765L143.49 53.2573C144.006 52.4019 144.601 52.1243 145.184 52.1243C145.854 52.1243 146.152 52.5237 146.152 52.9797H146.154Z" fill="#0000C9"></path>
		<path d="M146.1 55.4015C146.1 53.8889 147.157 52.0788 148.927 52.0788C149.653 52.0788 150.203 52.4131 150.455 53.0221L151.336 49.6428H153.03L150.994 57.4211H149.322L149.499 56.7215C149.07 57.322 148.509 57.5656 147.925 57.5656C146.826 57.5656 146.1 56.6761 146.1 55.3986V55.4015ZM150.048 54.09C150.048 53.3224 149.664 52.9683 149.246 52.9683C148.366 52.9683 147.771 54.3789 147.771 55.5346C147.771 56.2909 148.133 56.679 148.584 56.679C149.465 56.679 150.048 55.257 150.048 54.09Z" fill="#0000C9"></path>
		<path d="M152.391 55.4015C152.391 53.8889 153.448 52.0789 155.218 52.0789C155.865 52.0789 156.482 52.3338 156.757 53.0136L156.968 52.2347H158.662L157.287 57.424H155.638L155.837 56.679C155.397 57.3135 154.825 57.5684 154.219 57.5684C153.12 57.5684 152.393 56.679 152.393 55.4015H152.391ZM156.339 54.09C156.339 53.3224 155.955 52.9683 155.537 52.9683C154.657 52.9683 154.062 54.3789 154.062 55.5346C154.062 56.2909 154.424 56.679 154.875 56.679C155.756 56.679 156.339 55.257 156.339 54.09Z" fill="#0000C9"></path>
		<path d="M157.288 59.4011L157.793 58.5116C157.981 58.6901 158.244 58.8119 158.564 58.8119C158.959 58.8119 159.456 58.6674 160.017 57.8007L159.192 52.2346H160.984L161.391 55.8008L163.713 52.2346H165L160.962 58.2227C160.213 59.3331 159.433 59.7353 158.497 59.7353C157.936 59.7353 157.529 59.5795 157.285 59.4011H157.288Z" fill="#0000C9"></path>
	</g>
</svg>